<svg xmlns="http://www.w3.org/2000/svg" version="1.1" xmlns:xlink="http://www.w3.org/1999/xlink" xmlns:svgjs="http://svgjs.dev/svgjs" width="1000" height="171" viewBox="0 0 1000 171"><g transform="matrix(1,0,0,1,-0.6060606060606233,0.011123758545366513)"><svg viewBox="0 0 396 68" data-background-color="#444444" preserveAspectRatio="xMidYMid meet" height="171" width="1000" xmlns="http://www.w3.org/2000/svg" xmlns:xlink="http://www.w3.org/1999/xlink"><g id="tight-bounds" transform="matrix(1,0,0,1,0.2400000000000091,-0.004423482930320688)"><svg viewBox="0 0 395.52 68.00868725867161" height="68.00868725867161" width="395.52"><g><svg viewBox="0 0 497.6913526704967 85.576799036997" height="68.00868725867161" width="395.52"><g transform="matrix(1,0,0,1,102.1713526704967,25.21508241563788)"><svg viewBox="0 0 395.52 35.14663420572124" height="35.14663420572124" width="395.52"><g id="textblocktransform"><svg viewBox="0 0 395.52 35.14663420572124" height="35.14663420572124" width="395.52" id="textblock"><g><svg viewBox="0 0 395.52 35.14663420572124" height="35.14663420572124" width="395.52"><g transform="matrix(1,0,0,1,0,0)"><svg width="395.52" viewBox="1.5 -35.75 410.72 36.5" height="35.14663420572124" data-palette-color="#ffffff"><path d="M22.25 0.5L7-28.75 7-2.25 11-0.75 11 0 1.5 0 1.5-0.75 5.5-2.25 5.5-33.5 2.5-34.25 2.5-35 8.75-35Q11.35-35 12.88-33.93 14.4-32.85 15.5-30.75L15.5-30.75 26.4-9.9 34.75-30.75Q35.6-32.95 37.05-33.98 38.5-35 41.5-35L41.5-35 46.75-35 46.75-34.25 43.75-33.5 43.75-1.5 46.75-0.75 46.75 0 32.5 0 32.5-0.75 35.5-1.5 35.5-28.75 23.75 0.5 22.25 0.5ZM51.25 0L51.25-0.75 54.25-1.5 54.25-33.5 51.25-34.25 51.25-35 78-35 78-26 76.5-26Q75.55-26.75 74.85-27.9L74.85-27.9Q73.25-30.6 73.25-33.75L73.25-33.75 62.5-33.75 62.5-18 68.25-18Q68.6-19.9 69.55-21.55L69.55-21.55Q69.95-22.3 70.5-23L70.5-23 72-23 72-11.75 70.5-11.75Q69.95-12.45 69.55-13.2L69.55-13.2Q68.6-14.85 68.25-16.75L68.25-16.75 62.5-16.75 62.5-1.25 74.25-1.25Q74.25-4.4 75.85-7.1L75.85-7.1Q76.55-8.25 77.5-9L77.5-9 79-9 79 0 51.25 0ZM89.75 0L89.75-0.75 92.75-1.5 92.75-33.75 87-33.75Q87-30.7 85.34-27.9L85.34-27.9Q84.65-26.75 83.75-26L83.75-26 82.25-26 82.25-35 111.5-35 111.5-26 110-26Q109.05-26.75 108.34-27.9L108.34-27.9Q106.75-30.6 106.75-33.75L106.75-33.75 101-33.75 101-1.5 104-0.75 104 0 89.75 0ZM108.74 0L108.74-0.75 112.74-2.25 126.49-35.5 127.99-35.5 142.24-1.5 144.74-0.75 144.74 0 138.74 0Q136.14 0 134.49-1.18 132.84-2.35 132.04-4.25L132.04-4.25 129.49-10.25 117.54-10.25 114.24-2.25 117.99-0.75 117.99 0 108.74 0ZM123.49-24.65L118.04-11.5 128.99-11.5 123.49-24.65ZM146.24 0L146.24-0.75 149.24-1.5 149.24-33.5 146.24-34.25 146.24-35 159.74-35Q167.34-35 170.92-32.58 174.49-30.15 174.49-26.25L174.49-26.25Q174.49-23.55 172.94-21.9 171.39-20.25 168.99-19.45L168.99-19.45Q166.44-18.55 163.49-18.5L163.49-18.5 163.49-18.25Q167.14-18.1 169.84-17.15L169.84-17.15Q172.59-16.25 174.42-14.35 176.24-12.45 176.24-9.5L176.24-9.5Q176.24-5.05 172.59-2.53 168.94 0 160.74 0L160.74 0 146.24 0ZM157.49-19L159.74-19Q161.39-19 162.81-19.93 164.24-20.85 165.12-22.53 165.99-24.2 165.99-26.25L165.99-26.25Q165.99-28.45 165.12-30.15 164.24-31.85 162.81-32.8 161.39-33.75 159.74-33.75L159.74-33.75 157.49-33.75 157.49-19ZM157.49-1.25L160.74-1.25Q163.84-1.25 165.79-3.45 167.74-5.65 167.74-9.5L167.74-9.5Q167.74-13.35 165.79-15.55 163.84-17.75 160.74-17.75L160.74-17.75 157.49-17.75 157.49-1.25ZM180.24 0L180.24-0.75 183.24-1.5 183.24-33.5 180.24-34.25 180.24-35 193.49-35Q201.99-35 205.74-32.43 209.49-29.85 209.49-25.25L209.49-25.25Q209.49-22.15 207.84-20.23 206.19-18.3 203.59-17.35L203.59-17.35Q200.84-16.3 197.74-16.25L197.74-16.25 197.74-16Q199.59-15.9 200.99-15.45L200.99-15.45Q204.49-14.35 205.74-11.5L205.74-11.5 210.24-1.5 212.74-0.75 212.74 0 205.74 0Q201.64 0 199.74-4.25L199.74-4.25 194.74-15.5 191.49-15.5 191.49-1.5 194.99-0.75 194.99 0 180.24 0ZM191.49-16.75L193.49-16.75Q196.99-16.75 198.99-18.95 200.99-21.15 200.99-25.25L200.99-25.25Q200.99-29.35 198.99-31.55 196.99-33.75 193.49-33.75L193.49-33.75 191.49-33.75 191.49-16.75ZM229.49 0L215.24 0 215.24-0.75 218.24-1.5 218.24-33.5 215.24-34.25 215.24-35 229.49-35 229.49-34.25 226.49-33.5 226.49-1.5 229.49-0.75 229.49 0ZM251.23 0.75Q243.23 0.75 238.73-4 234.23-8.75 234.23-17.5L234.23-17.5Q234.23-23.25 236.21-27.38 238.18-31.5 241.76-33.63 245.33-35.75 250.03-35.75L250.03-35.75Q252.88-35.75 255.78-34.1L255.78-34.1Q256.88-33.5 257.98-32.5L257.98-32.5Q258.83-33.8 259.73-34.55L259.73-34.55Q260.63-35.2 260.73-35.25L260.73-35.25 261.98-35.25 261.98-25.75 259.98-25.75Q259.33-28.15 258.03-30.1L258.03-30.1Q256.83-32 255.06-33.25 253.28-34.5 250.98-34.5L250.98-34.5Q247.53-34.5 245.26-30.5 242.98-26.5 242.98-17.5L242.98-17.5Q242.98-8.35 245.46-4.42 247.93-0.5 252.23-0.5L252.23-0.5Q254.58-0.5 256.71-1.83 258.83-3.15 260.16-5.35 261.48-7.55 261.48-10L261.48-10 262.73-10Q262.73-7.15 261.21-4.67 259.68-2.2 257.06-0.73 254.43 0.75 251.23 0.75L251.23 0.75ZM280.98 0L280.98-0.75 283.98-1.5 283.98-33.5 280.98-34.25 280.98-35 293.73-35Q302.68-35 307.45-30.4 312.23-25.8 312.23-17.5L312.23-17.5Q312.23-9.2 307.45-4.6 302.68 0 293.73 0L293.73 0 280.98 0ZM292.23-1.25L293.73-1.25Q298.38-1.25 300.93-5.03 303.48-8.8 303.48-17.5L303.48-17.5Q303.48-26.2 300.93-29.98 298.38-33.75 293.73-33.75L293.73-33.75 292.23-33.75 292.23-1.25ZM311.73 0L311.73-0.75 315.73-2.25 329.48-35.5 330.98-35.5 345.23-1.5 347.73-0.75 347.73 0 341.73 0Q339.13 0 337.48-1.18 335.83-2.35 335.03-4.25L335.03-4.25 332.48-10.25 320.53-10.25 317.23-2.25 320.98-0.75 320.98 0 311.73 0ZM326.48-24.65L321.03-11.5 331.98-11.5 326.48-24.65ZM361.47 0.75Q357.92 0.75 354.82-0.85L354.82-0.85Q353.42-1.55 352.47-2.5L352.47-2.5Q351.77-1.35 350.72-0.45L350.72-0.45Q349.82 0.2 349.72 0.25L349.72 0.25 348.47 0.25 348.47-9.25 350.47-9.25Q351.22-6.8 352.57-4.85L352.57-4.85Q355.62-0.5 360.47-0.5L360.47-0.5Q363.32-0.5 365.02-2.2 366.72-3.9 366.72-6.75L366.72-6.75Q366.72-8.4 365.75-9.7 364.77-11 363.32-12 361.87-13 359.27-14.5L359.27-14.5Q355.97-16.35 353.92-17.85 351.87-19.35 350.42-21.63 348.97-23.9 348.97-27L348.97-27Q348.97-29.45 350.35-31.43 351.72-33.4 354.47-34.58 357.22-35.75 361.22-35.75L361.22-35.75Q364.12-35.75 367.02-34.1L367.02-34.1Q368.12-33.5 369.22-32.5L369.22-32.5Q370.07-33.8 370.97-34.55L370.97-34.55Q371.87-35.2 371.97-35.25L371.97-35.25 373.22-35.25 373.22-25.75 371.22-25.75Q370.57-28.15 369.27-30.1L369.27-30.1Q368.07-32 366.3-33.25 364.52-34.5 362.22-34.5L362.22-34.5Q360.27-34.5 358.87-32.95 357.47-31.4 357.47-29L357.47-29Q357.47-27.15 358.55-25.68 359.62-24.2 361.2-23.1 362.77-22 365.47-20.45L365.47-20.45Q368.62-18.65 370.57-17.25 372.52-15.85 373.87-13.78 375.22-11.7 375.22-9L375.22-9Q375.22-6.3 373.67-4.08 372.12-1.85 369.02-0.55 365.92 0.75 361.47 0.75L361.47 0.75ZM393.22 0L378.97 0 378.97-0.75 381.97-1.5 381.97-33.5 378.97-34.25 378.97-35 393.22-35 393.22-34.25 390.22-33.5 390.22-18 400.97-18 400.97-33.5 397.97-34.25 397.97-35 412.22-35 412.22-34.25 409.22-33.5 409.22-1.5 412.22-0.75 412.22 0 397.97 0 397.97-0.75 400.97-1.5 400.97-16.75 390.22-16.75 390.22-1.5 393.22-0.75 393.22 0Z" opacity="1" transform="matrix(1,0,0,1,0,0)" fill="#ffffff" class="wordmark-text-0" data-fill-palette-color="primary" id="text-0"></path></svg></g></svg></g></svg></g></svg></g><g><svg viewBox="0 0 85.576799036997 85.576799036997" height="85.576799036997" width="85.576799036997"><g><svg></svg></g><g id="icon-0"><svg viewBox="0 0 85.576799036997 85.576799036997" height="85.576799036997" width="85.576799036997"><g><path d="M0 42.788c0-23.631 19.157-42.788 42.788-42.788 23.631 0 42.788 19.157 42.789 42.788 0 23.631-19.157 42.788-42.789 42.789-23.631 0-42.788-19.157-42.788-42.789zM42.788 82.407c21.881 0 39.619-17.738 39.619-39.619 0-21.881-17.738-39.619-39.619-39.618-21.881 0-39.619 17.738-39.618 39.618 0 21.881 17.738 39.619 39.618 39.619z" data-fill-palette-color="accent" fill="#00d1cd" stroke="transparent"></path><ellipse rx="42.360515523313516" ry="42.360515523313516" cx="42.7883995184985" cy="42.7883995184985" fill="#00d1cd" stroke="transparent" stroke-width="0" fill-opacity="1" data-fill-palette-color="accent"></ellipse></g><g transform="matrix(1,0,0,1,18.02683147200799,26.991513867960563)"><svg viewBox="0 0 49.52313609298102 31.593771301075872" height="31.593771301075872" width="49.52313609298102"><g><svg xmlns="http://www.w3.org/2000/svg" xmlns:xlink="http://www.w3.org/1999/xlink" version="1.1" x="0" y="0" viewBox="8 24 83.836 53.483999999999995" enable-background="new 0 0 100 100" xml:space="preserve" height="31.593771301075872" width="49.52313609298102" class="icon-z$-0" data-fill-palette-color="quaternary" id="z$-0"><path d="M83.924 24c-4.363 0-7.913 3.55-7.913 7.913 0 1.461 0.405 2.825 1.098 4.001L64.486 48.536c-1.13-0.622-2.426-0.978-3.804-0.978-3.191 0-5.942 1.903-7.192 4.631L41.195 49.8c-0.803-3.519-3.951-6.154-7.709-6.154-4.363 0-7.913 3.55-7.913 7.913 0 1.309 0.325 2.543 0.89 3.631l-7.214 7.216c-1.016-0.475-2.143-0.747-3.335-0.747C11.55 61.658 8 65.208 8 69.571s3.55 7.913 7.913 7.913c4.364 0 7.914-3.55 7.914-7.913 0-1.207-0.279-2.347-0.765-3.371l7.35-7.351c0.945 0.4 1.984 0.622 3.074 0.622 3.07 0 5.73-1.76 7.042-4.32l12.538 2.437c0.929 3.337 3.988 5.797 7.617 5.797 4.363 0 7.913-3.55 7.913-7.913 0-1.019-0.2-1.989-0.553-2.885l13.229-13.228c0.83 0.296 1.721 0.467 2.651 0.467 4.363 0 7.913-3.55 7.913-7.913S88.287 24 83.924 24zM15.913 72.104c-1.397 0-2.533-1.137-2.533-2.533 0-1.397 1.136-2.533 2.533-2.533 1.397 0 2.534 1.136 2.534 2.533C18.447 70.968 17.311 72.104 15.913 72.104zM33.486 54.092c-1.397 0-2.534-1.137-2.534-2.533 0-1.397 1.137-2.533 2.534-2.533s2.534 1.136 2.534 2.533C36.02 52.955 34.883 54.092 33.486 54.092zM60.683 58.005c-1.397 0-2.533-1.137-2.533-2.533 0-1.397 1.136-2.533 2.533-2.533 1.396 0 2.533 1.136 2.533 2.533C63.216 56.868 62.079 58.005 60.683 58.005zM83.924 34.446c-1.397 0-2.533-1.136-2.533-2.533s1.136-2.533 2.533-2.533c1.396 0 2.533 1.136 2.533 2.533S85.32 34.446 83.924 34.446z" fill="#444444" data-fill-palette-color="quaternary"></path></svg></g></svg></g></svg></g></svg></g></svg></g><defs></defs></svg><rect width="395.52" height="68.00868725867161" fill="none" stroke="none" visibility="hidden"></rect></g></svg></g></svg>